<svg xmlns="http://www.w3.org/2000/svg" xmlns:xlink="http://www.w3.org/1999/xlink" viewBox="0 0 283.46 100.26"><defs><style>.cls-1{fill:none;}.cls-2{clip-path:url(#clip-path);}.cls-3{fill:#271800;}.cls-4{fill:#e1002a;}</style><clipPath id="clip-path" transform="translate(0 0)"><rect class="cls-1" width="283.46" height="100.26"/></clipPath></defs><g id="レイヤー_2" data-name="レイヤー 2"><g id="Layer_1" data-name="Layer 1"><g class="cls-2"><path class="cls-3" d="M66.59,71.66H81.75V16H66.59ZM84.52,2.79V15H106.4c3.33,0,7.95-.12,10.44.91a6.58,6.58,0,0,1,4.07,4.75A7.07,7.07,0,0,1,116.74,29c-2,.82-5.34.81-8.1.81H92.52V40.18L111.2,63.44h18.35l-.21-.21L111,40.18c10.86.15,18.71-2.34,22.84-8.85,4.78-7.54,2.6-18.95-3.31-23.69a20.42,20.42,0,0,0-8.22-4.07c-3.57-.87-8.69-.78-12.8-.78Zm-35.85,0c0,14-.11,42.31-.11,42.31H38.75V73.47H55.6V15h8.22V2.78ZM146.3,1V64.41H133.92l5.77,7.25h21.76V1ZM2.79,1v70.7H17.73V42.32H37.79V31.86H10.47V1Zm8.64-1c0,10.31,0,30.9,0,30.9H38.75V42.32h7.14V0h20.7V15H81.75V0h27c4.66,0,10.32-.08,14.3.9a23.28,23.28,0,0,1,9.39,4.7c5.73,4.61,9.5,17.24,4.59,25.72a20.13,20.13,0,0,1-7.51,7.85,31.62,31.62,0,0,1-12.87,3.67c5.51,6.87,16.54,20.59,16.54,20.59h12.16V0h18.89V74.43H138.4l-8-10H110.83L91.56,40.5V28.87h16.76c2.91,0,6.41,0,8.42-.92a6,6,0,0,0,3.31-6.54A5.81,5.81,0,0,0,116.84,17c-2.27-1.15-6.87-1-10.12-1H84.52V74.43H63.82V16H56.57V74.43H37.79V45.09H20.5V74.43H0V0Z" transform="translate(0 0)"/><path class="cls-4" d="M274.92,85.74c2,.09,4.66-.62,4.66,2.4s-2.63,2.31-4.66,2.4Zm0,14.17V93.36h2.66c3.79-.12,5.88-2.14,5.88-5.22,0-4.31-3.17-5.2-6.94-5.23h-5.25v17Zm-9.43-17V94.19c-.1,1.22-.1,3.44-2.05,3.44-1.79,0-2-1.93-2.05-3.16h-3.65c.28,3.39,1.44,5.79,5.7,5.79,3.1,0,5.67-1.81,5.69-6V82.91Z" transform="translate(0 0)"/><path class="cls-3" d="M243.52,92.87c0-1.93,1.11-3.51,3-3.51,2.17,0,3.06,1.53,3,3.51Zm8.33,1.55v-1.1c0-3.28-1.67-5.51-5.2-5.58-3.74,0-5.48,2.89-5.48,6.35s1.5,6.17,5.29,6.17c2.83,0,4.9-1.34,5.25-4h-2.35c-.26,1.73-1.13,2.41-2.87,2.41-2.29,0-3.13-2.15-3-4.22ZM233.51,88v1.67l2,0v7.51c0,1.57.12,1.62.51,2.19a2.17,2.17,0,0,0,1.32.77,7.69,7.69,0,0,0,1.51.12c.51,0,1-.12,1.53-.14V98.4a4.81,4.81,0,0,1-1.18.14c-.8,0-1.46-.4-1.46-1.24V89.67l2.73,0V88l-2.73.07V84.87l-2.23.7v2.52Zm-3.65,6.15a8.82,8.82,0,0,1-.45,2.77,2.8,2.8,0,0,1-2.64,1.7c-2.14,0-2.61-1.51-2.61-3.56v-7h-2.24V96c0,2.38,1.41,4.26,3.89,4.26a4.48,4.48,0,0,0,4.05-2.09h0v1.74h2.18V88.09h-2.23ZM213.3,88v1.67l2,0v7.51c0,1.57.12,1.62.51,2.19a2.17,2.17,0,0,0,1.32.77,7.63,7.63,0,0,0,1.51.12c.51,0,1-.12,1.53-.14V98.4a4.81,4.81,0,0,1-1.18.14c-.8,0-1.46-.4-1.46-1.24V89.67l2.73,0V88l-2.73.07V84.87l-2.23.7v2.52Zm-3.87-2.69h2.66V82.91h-2.66Zm2.45,2.76h-2.23V99.91h2.23ZM201,88v1.67l2,0v7.51c0,1.57.11,1.62.51,2.19a2.17,2.17,0,0,0,1.32.77,7.63,7.63,0,0,0,1.51.12c.51,0,1-.12,1.52-.14V98.4a4.68,4.68,0,0,1-1.17.14c-.8,0-1.46-.4-1.46-1.24V89.67l2.73,0V88l-2.73.07V84.87l-2.23.7v2.52Zm-10.16,3.29c0,4.62,7.18,2.64,7.18,5.28,0,1.53-1.35,2-2.66,2A2.2,2.2,0,0,1,193,96.4H190.6c0,2.73,2.05,3.86,4.52,3.86s5.25-.89,5.25-3.79c0-2.66-2.31-2.89-4.31-3.55-.85-.26-2.87-.36-2.87-1.68s1-1.88,2.17-1.88,2.44.49,2.35,2h2.35c.17-2.68-2.35-3.62-4.59-3.62s-4.63,1.1-4.63,3.57M180.5,88.09h-2.19V99.91h2.23V93.48c0-2.31.62-2.83,1-3.15a3,3,0,0,1,2.16-.87c1.89,0,2.71,1.05,2.71,3v7.44h2.24V91.74c0-3.79-3.65-4-4.48-4a4.12,4.12,0,0,0-3.58,2.09h0Zm-5.22-5.18h-2.35v17h2.35Zm-18.94,17V93.83a5.81,5.81,0,0,1,.37-2.73,3.17,3.17,0,0,1,2.69-1.64c2.09,0,2.64,1.38,2.64,3.46v7h2.23v-8c0-2.12-1-4.16-4.05-4.16a4.21,4.21,0,0,0-3.84,1.93h0V82.91H154.1v17Zm-4.28-8a4.21,4.21,0,0,0-4.49-4.14c-3.75,0-5.49,2.89-5.49,6.35s1.51,6.17,5.3,6.17A4.49,4.49,0,0,0,152.16,96h-2.24c-.12,1.69-1,2.66-2.52,2.66-2.14,0-3-1.86-3-4.64s.83-4.64,3-4.64c1.6,0,2.31,1,2.43,2.52ZM137.29,94c0-2.49.5-4,3.32-4.09a2.7,2.7,0,0,1,1,.12V88l-.78,0a3.28,3.28,0,0,0-3.46,2.44h-.05V88.09h-2.23V99.91h2.23ZM128,92.61c-2.8,0-5.74,1-5.74,4.28,0,2.31,2.07,3.37,4.11,3.37A3.78,3.78,0,0,0,130,98.14h.05c0,.54.07,1.06.11,1.6,0,.28.43.17.64.17h1.5c-.07-1-.09-2-.09-2.5V91.76c0-3.29-2.4-4-4.83-4s-4.35.92-4.47,3.51h2.35a2,2,0,0,1,2.22-1.89c2.38,0,2.5,1.2,2.5,3.25Zm2,1.55c0,2.19-.45,4.48-3.09,4.48a2.1,2.1,0,0,1-2.33-2.19c0-1.72,1.81-2.22,3.18-2.29Zm-17.53-1.29c0-1.93,1.11-3.51,3-3.51,2.17,0,3.06,1.53,3,3.51Zm8.33,1.55v-1.1c0-3.28-1.66-5.51-5.19-5.58-3.75,0-5.49,2.89-5.49,6.35s1.51,6.17,5.3,6.17c2.82,0,4.89-1.34,5.24-4h-2.35c-.26,1.73-1.13,2.41-2.87,2.41-2.29,0-3.13-2.15-3-4.22ZM99.29,91.31c0,4.62,7.18,2.64,7.18,5.28,0,1.53-1.34,2-2.66,2a2.19,2.19,0,0,1-2.4-2.24H99.06c0,2.73,2,3.86,4.51,3.86s5.25-.89,5.25-3.79c0-2.66-2.3-2.89-4.3-3.55-.85-.26-2.88-.36-2.88-1.68s1-1.88,2.17-1.88,2.45.49,2.35,2h2.36c.16-2.68-2.36-3.62-4.59-3.62s-4.64,1.1-4.64,3.57m-10,1.56c0-1.93,1.1-3.51,3-3.51,2.17,0,3.07,1.53,3,3.51Zm8.33,1.55v-1.1c0-3.28-1.67-5.51-5.2-5.58-3.74,0-5.49,2.89-5.49,6.35s1.51,6.17,5.3,6.17c2.83,0,4.9-1.34,5.25-4H95.18c-.26,1.73-1.13,2.41-2.88,2.41-2.28,0-3.13-2.15-3-4.22ZM78.94,92.23c.94.07,1.88,0,2.57.78s.77,2.24,1,3.76c.12,1,.4,2.12.61,3.14H85.6a25.36,25.36,0,0,1-1.06-5.11c-.26-1.91-.54-3-2.59-3.48v0a4,4,0,0,0,3.2-4.1c0-3.36-2.94-4.26-5.79-4.26H73.29v17h2.35V92.23Zm-3.35-7.3h3.89c2.61.12,3.2,1.3,3.2,2.64s-.59,2.52-3.2,2.64H75.59ZM60.7,92.61c-2.81,0-5.75,1-5.75,4.28,0,2.31,2.07,3.37,4.12,3.37a3.78,3.78,0,0,0,3.68-2.12h0c0,.54.07,1.06.12,1.6,0,.28.42.17.63.17h1.51c-.07-1-.09-2-.09-2.5V91.76c0-3.29-2.4-4-4.83-4s-4.35.92-4.47,3.51H58a2,2,0,0,1,2.22-1.89c2.37,0,2.49,1.2,2.49,3.25Zm2,1.55c.05,2.19-.45,4.48-3.08,4.48a2.1,2.1,0,0,1-2.33-2.19c0-1.72,1.81-2.22,3.17-2.29Zm-12-4.47h0a3.85,3.85,0,0,0-3.68-2c-3.67,0-5.29,3.06-5.29,6.26,0,3,1.38,6.26,4.89,6.26A4.19,4.19,0,0,0,50.65,98h0v.11l.07,1.77H53c0-.69-.11-1.39-.11-2.1V82.91H50.69ZM44,94c0-2.22.66-4.69,3.34-4.69s3.35,2.54,3.35,4.69-.64,4.73-3.35,4.73C44.85,98.71,44,96.19,44,94M31.42,88.09H29.23V99.91h2.24V93.48c0-2.31.61-2.83.94-3.15a3,3,0,0,1,2.17-.87c1.88,0,2.7,1.05,2.7,3v7.44h2.24V91.74c0-3.79-3.65-4-4.47-4a4.1,4.1,0,0,0-3.58,2.09h0ZM17.54,94c0-2.52.87-4.64,3.53-4.64S24.6,91.48,24.6,94s-.87,4.64-3.53,4.64S17.54,96.52,17.54,94m3.53-6.26c-3.89,0-5.88,2.59-5.88,6.26s2,6.26,5.88,6.26S27,97.67,27,94s-2-6.26-5.88-6.26M2.35,99.91V92.23h8.08v7.68h2.35v-17H10.43v7.3H2.35v-7.3H0v17Z" transform="translate(0 0)"/></g></g></g></svg>